<svg width="12" height="12" viewBox="0 0 12 12" fill="none" xmlns="http://www.w3.org/2000/svg">
<path fill-rule="evenodd" clip-rule="evenodd" d="M0 6C0 5.58579 0.335786 5.25 0.75 5.25H11.25C11.6642 5.25 12 5.58579 12 6C12 6.41421 11.6642 6.75 11.25 6.75H0.75C0.335786 6.75 0 6.41421 0 6Z" fill="#1AAC4E"/>
<path fill-rule="evenodd" clip-rule="evenodd" d="M5.46967 0.21967C5.76256 -0.0732233 6.23744 -0.0732233 6.53033 0.21967L11.7803 5.46967C12.0732 5.76256 12.0732 6.23744 11.7803 6.53033L6.53033 11.7803C6.23744 12.0732 5.76256 12.0732 5.46967 11.7803C5.17678 11.4874 5.17678 11.0126 5.46967 10.7197L10.1893 6L5.46967 1.28033C5.17678 0.987437 5.17678 0.512563 5.46967 0.21967Z" fill="#1AAC4E"/>
</svg>
