<svg width="20" height="20" viewBox="0 0 20 20" fill="none" xmlns="http://www.w3.org/2000/svg">
<path d="M15.3787 7.41504C15.7228 7.44028 15.9819 7.73988 15.9568 8.08398L15.4676 14.7852C15.3425 16.4975 13.9163 17.8239 12.1981 17.8242H7.40314C5.68545 17.8242 4.25866 16.4976 4.13361 14.7842L3.64435 8.08398C3.61931 7.73992 3.87748 7.44038 4.2215 7.41504C4.56548 7.39003 4.86501 7.64828 4.89044 7.99219L5.38068 14.6934C5.45816 15.7536 6.3409 16.5742 7.40314 16.5742H12.1981C13.2608 16.5739 14.1429 15.7536 14.2205 14.6943L14.7098 7.99219C14.7352 7.64829 15.0348 7.39006 15.3787 7.41504ZM11.452 2.17578C12.14 2.17595 12.7493 2.60963 12.9793 3.24902L13.0203 3.37988L13.0291 3.41699L13.3299 4.89746H16.4119C16.757 4.89746 17.0368 5.17737 17.0369 5.52246C17.0369 5.86764 16.7571 6.14746 16.4119 6.14746H3.18829C2.84312 6.14746 2.56329 5.86764 2.56329 5.52246C2.5634 5.17737 2.84318 4.89746 3.18829 4.89746H6.27618L6.57404 3.41797L6.58282 3.37891C6.77382 2.66722 7.41931 2.17535 8.15509 2.17676L11.452 2.17578ZM8.15314 3.42578C7.98452 3.42527 7.83762 3.53665 7.79181 3.69727L7.5506 4.89746H12.0545L11.8104 3.69434C11.7641 3.53594 11.6178 3.42596 11.452 3.42578H8.15314Z" fill="#EE4F09"/>
</svg>
